<svg xmlns="http://www.w3.org/2000/svg" width="39.78" height="15.912" viewBox="0 0 39.78 15.912">
  <path id="eyeglasses" d="M39.117,24.63H37.672a7.951,7.951,0,0,0-15.629-.279,3.217,3.217,0,0,0-4.3,0,7.953,7.953,0,0,0-15.716.943H.663a.663.663,0,1,0,0,1.326h1.36a7.948,7.948,0,0,0,15.867-.445,2.52,2.52,0,0,1,2-1.323,2.521,2.521,0,0,1,2,1.323,7.952,7.952,0,0,0,15.9-.218h1.326a.663.663,0,1,0,0-1.326ZM9.993,32.586a6.63,6.63,0,1,1,0-13.26,6.63,6.63,0,0,1,0,13.26Zm19.89,0a6.63,6.63,0,1,1,0-13.26,6.63,6.63,0,0,1,0,13.26Z" transform="translate(0 -18)" fill="#033a8d"/>
</svg>
