<svg width="245" height="42" viewBox="0 0 245 42" fill="none" xmlns="http://www.w3.org/2000/svg">
<g clip-path="url(#clip0_1802_19837)">
<path d="M2.5918 30.9929H14.0671V26.3591H8.40524V22.0618H14.0671V18.9726H8.40524V14.8743H14.0671V10.2406H2.5918V30.9929ZM16.2039 24.227H23.1687V20.0197H16.2039V24.227ZM35.0752 30.9882H41.2441L37.6196 10.2406H27.7361L24.1116 30.9882H30.2805L30.7921 27.0652H34.5636L35.0752 30.9882ZM31.2186 23.7201L32.0998 16.9732C32.1993 16.2057 32.2988 15.4382 32.3841 14.6753H32.9716C33.0569 15.4382 33.1564 16.2057 33.2417 16.9732L34.1229 23.7201H31.2186ZM50.4877 31.2772C55.7753 31.2772 58.1491 29.202 58.1491 25.62V10.2264H52.3214V26.8709H48.6684V10.2264H42.8266V25.62C42.8266 29.202 45.2286 31.2772 50.4877 31.2772ZM61.0346 30.9929H66.848V10.2406H61.0346V30.9929ZM71.0696 30.9929H77.153L73.0453 20.5457L77.1246 10.2406H71.0554L67.0613 20.5457L71.0696 30.9929ZM85.9941 31.2772C91.2391 31.2772 93.6127 29.2162 93.6127 25.639V21.0052L84.2173 18.1388V14.3342H87.7708V17.9397H93.6127V15.5945C93.6127 12.0457 91.2391 9.9563 85.9941 9.9563C80.7633 9.9563 78.3754 12.0315 78.3754 15.5945V20.2566L87.7708 23.1231V26.8709H84.2173V23.3079H78.3754V25.639C78.3754 29.2162 80.7633 31.2772 85.9941 31.2772ZM96.4319 30.9929H102.25V10.2406H96.4319V30.9929Z" fill="#3275D9"/>
<path d="M147.588 31.0047H152.136V19.7472V15.2556H152.563C152.818 16.7481 153.088 18.2547 153.401 19.7472L155.818 31.0047H164.128V10.2523H159.561V21.5097V26.0014H159.134C158.893 24.5089 158.622 23.0023 158.31 21.5097L155.874 10.2523H147.588V31.0047ZM180.109 31.289C185.354 31.289 187.728 29.2279 187.728 25.6507V21.0169L178.332 18.1505V14.3459H181.886V17.9515H187.728V15.6063C187.728 12.0575 185.354 9.96803 180.109 9.96803C174.878 9.96803 172.491 12.0433 172.491 15.6063V20.2684L181.886 23.1348V26.8826H178.332V23.3196H172.491V25.6507C172.491 29.2279 174.878 31.289 180.109 31.289ZM190.485 31.0141H196.327V22.3578H199.98V31.0141H205.808V10.2571H199.98V18.7002H196.327V10.2571H190.485V31.0141ZM216.35 31.289C221.694 31.289 224.082 29.2137 224.082 25.6365V15.6063C224.082 12.0338 221.694 9.94434 216.35 9.94434C211.001 9.94434 208.627 12.0338 208.627 15.6063V25.6365C208.627 29.2137 211.001 31.289 216.35 31.289ZM214.469 26.8826V14.3412H218.24V26.8826H214.469ZM226.916 30.9904H232.729V25.177H236.737C240.291 25.177 242.011 23.4002 242.011 20.3347V15.1514C242.011 12.0575 240.291 10.2523 236.737 10.2523H226.916V30.9904ZM232.729 21.0548V14.3459H236.169V21.0548H232.729Z" fill="#3275D9"/>
<path fill-rule="evenodd" clip-rule="evenodd" d="M133.097 38.9831C123.049 43.573 111.182 39.1479 106.592 29.0993C102.003 19.0507 106.428 7.18415 116.476 2.5943C126.525 -1.99554 138.391 2.42952 142.981 12.4781C147.571 22.5267 143.146 34.3933 133.097 38.9831ZM124.787 7.3853C132.189 7.3853 138.19 13.3861 138.19 20.7887C138.19 28.1913 132.189 34.192 124.787 34.192C117.384 34.192 111.383 28.1913 111.383 20.7887C111.383 13.3861 117.384 7.3853 124.787 7.3853ZM107.845 27.2073L108.593 28.9705L109.305 28.6687L108.936 27.7987L109.597 27.5186L109.966 28.3885L110.44 28.1872L110.071 27.3174L110.701 27.0502L111.07 27.9201L111.782 27.6181L111.034 25.8551L107.845 27.2073ZM110.202 29.499L110.819 30.4838L111.414 30.111L110.797 29.1261L110.202 29.499ZM112.22 33.8979C112.418 33.6243 112.657 33.3756 112.906 33.1422L113.454 32.6302C113.942 32.1734 113.927 31.6946 113.392 31.1228C112.869 30.563 112.407 30.4786 111.918 30.9356L111.861 30.9889L112.452 31.6215L112.667 31.4207L113.046 31.826L112.798 32.0577L111.556 31.2741L111.164 31.6403C110.764 32.0145 110.72 32.3672 111.056 32.7258C111.316 33.0049 111.641 33.0427 111.952 32.8753C111.838 33.0006 111.732 33.133 111.632 33.269L112.22 33.8979ZM111.693 32.3311L111.946 32.0945L112.443 32.3898L112.306 32.5178C112.228 32.5909 112.152 32.6655 112.077 32.7417L111.693 32.3311ZM113.753 35.2563C114.012 35.4439 114.295 35.4636 114.55 35.3166L114.334 35.6151L115.036 36.1222L116.621 33.9299L115.919 33.4227L114.737 35.0589L114.284 34.732L115.467 33.0958L114.765 32.5886L113.632 34.1555C113.312 34.5983 113.37 34.9798 113.753 35.2563ZM116.238 36.8261L117.026 37.1859L118.497 33.9669L117.709 33.607L116.238 36.8261ZM117.573 37.4358L118.39 37.8094L118.434 36.2697L119.514 35.3497L118.703 34.9791L117.648 35.9104L117.573 37.4358ZM120.522 38.4663C121.262 38.6448 121.691 38.4237 121.841 37.8019L121.938 37.4022L120.673 36.7147L120.749 36.3972L121.262 36.5209L121.194 36.8039L122.033 37.0065L122.049 36.9394C122.199 36.3169 121.918 35.9244 121.178 35.7459C120.435 35.5665 120.006 35.7876 119.855 36.4101L119.759 36.8104L121.026 37.4987L120.95 37.8131L120.438 37.6895L120.505 37.4088L119.663 37.2057L119.647 37.2725C119.497 37.8945 119.778 38.2868 120.522 38.4663ZM123.241 35.9005L124.104 35.9754L124.155 35.3892L123.292 35.3144L123.241 35.9005ZM122.986 38.8381L123.85 38.9129L124.083 36.2187L123.22 36.1439L122.986 38.8381ZM126.369 38.8978C127.155 38.8158 127.481 38.4671 127.414 37.8262L127.323 36.9484C127.256 36.3091 126.865 36.0326 126.079 36.1145C125.3 36.1956 124.969 36.5473 125.036 37.1866L125.127 38.0644C125.194 38.7052 125.59 38.9788 126.369 38.8978ZM126.011 38.1957L125.874 36.8735L126.438 36.8148L126.576 38.1369L126.011 38.1957ZM128.853 38.4933L129.68 38.2372L129.083 36.3088L129.616 36.1437L130.213 38.0721L131.04 37.8161L130.469 35.9716C130.308 35.4496 130 35.2569 129.53 35.4021C129.218 35.4989 129.027 35.7192 128.989 36.0075L128.88 35.653L128.053 35.9091L128.853 38.4933ZM134.132 36.3407C134.777 35.9363 134.919 35.4748 134.579 34.9328L134.361 34.5845L132.985 35.0085L132.811 34.7317L133.258 34.4517L133.413 34.6982L134.144 34.2395L134.108 34.1811C133.767 33.6386 133.29 33.5653 132.645 33.9699C131.997 34.376 131.855 34.8374 132.196 35.3801L132.414 35.7291L133.792 35.3038L133.964 35.5779L133.517 35.8581L133.364 35.6134L132.63 36.0734L132.667 36.1317C133.007 36.6737 133.484 36.7468 134.132 36.3407ZM136.168 34.9029L136.801 34.3117L135.422 32.8369L135.83 32.4557L137.209 33.9304L137.841 33.3392L136.523 31.9287C136.149 31.5294 135.788 31.4904 135.43 31.8257C135.192 32.0476 135.115 32.3308 135.207 32.6064L134.383 31.725L133.75 32.3161L136.168 34.9029ZM139.449 31.4067C139.912 30.7664 139.869 30.2907 139.347 29.9134L138.632 29.3964C138.111 29.0198 137.644 29.1273 137.181 29.7675C136.722 30.4026 136.764 30.8835 137.285 31.2601L138 31.7769C138.522 32.1545 138.99 32.0417 139.449 31.4067ZM138.687 31.2052L137.61 30.4267L137.942 29.9666L139.02 30.7451L138.687 31.2052ZM141.368 29.5371L141.728 28.7496L140.764 28.309C141.06 28.3113 141.296 28.1534 141.432 27.8577C141.642 27.396 141.488 27.0669 140.994 26.8415L139.94 26.3598C139.447 26.1346 139.097 26.233 138.886 26.6946C138.751 26.9903 138.791 27.2745 138.981 27.4944L138.643 27.3401L138.284 28.1277L141.368 29.5371ZM140.477 28.1779L139.268 27.6255L139.502 27.1118L140.711 27.6644L140.477 28.1779ZM108.028 22.2247L108.377 22.8858L109.114 23.0134L108.593 23.5496L108.699 24.2895L108.028 23.9598L107.357 24.2895L107.464 23.5496L106.943 23.0134L107.679 22.8857L108.028 22.2247ZM141.399 22.2247L141.748 22.8858L142.485 23.0134L141.964 23.5496L142.07 24.2895L141.399 23.9598L140.729 24.2895L140.835 23.5496L140.314 23.0134L141.05 22.8857L141.399 22.2247ZM109.847 18.3576L109.721 20.127L106.553 19.902L106.679 18.1327L107.03 18.1576L106.933 19.5286L107.921 19.5988L108.013 18.3085L108.36 18.333L108.268 19.6234L109.398 19.7037L109.495 18.3327L109.847 18.3576ZM110.074 17.3435L109.995 17.7263L106.684 17.0455L106.763 16.6627L110.074 17.3435ZM110.585 15.6538C110.462 15.9891 110.263 16.2153 109.99 16.3314C109.716 16.4479 109.401 16.44 109.045 16.309C108.686 16.1769 108.433 15.9829 108.286 15.7264C108.139 15.4699 108.12 15.1908 108.232 14.8874C108.336 14.6063 108.509 14.415 108.752 14.3148C108.995 14.2146 109.271 14.2214 109.58 14.3354L109.802 14.4171L109.239 15.9498C109.496 16.0364 109.713 16.0429 109.89 15.9698C110.067 15.896 110.197 15.7472 110.279 15.5231C110.323 15.4034 110.355 15.2862 110.373 15.1704C110.391 15.0556 110.397 14.9144 110.388 14.748L110.71 14.8666C110.718 15.0098 110.713 15.1399 110.694 15.2563C110.676 15.3734 110.64 15.5056 110.585 15.6538ZM108.53 15.002C108.466 15.1772 108.471 15.3364 108.546 15.4802C108.622 15.6232 108.756 15.7414 108.95 15.8341L109.369 14.6945C109.159 14.6203 108.982 14.6107 108.839 14.6639C108.696 14.7179 108.593 14.8309 108.53 15.002ZM110.166 13.3159L110.08 13.1191L109.991 12.899L109.64 11.8467L109.856 11.4449L110.298 12.776L111.989 12.5119L111.766 12.9267L110.395 13.1309L110.477 13.4821L111.248 13.8953L111.065 14.2356L108.086 12.6395L108.268 12.2989L109.825 13.1331L110.158 13.3308L110.166 13.3159ZM112.465 11.3487C112.495 11.3082 112.527 11.2575 112.56 11.197C112.592 11.136 112.613 11.0883 112.624 11.0524L112.864 11.2311C112.855 11.2699 112.835 11.3237 112.801 11.394C112.768 11.4646 112.728 11.5308 112.682 11.5932C112.404 11.9677 112.067 12.0088 111.673 11.7161L110.559 10.8881L110.358 11.1583L110.208 11.0467L110.286 10.6799L109.972 10.2514L110.11 10.0653L110.549 10.3916L110.96 9.83807L111.204 10.0193L110.793 10.5728L111.899 11.3941C112.009 11.4764 112.114 11.5123 112.213 11.5035C112.311 11.4943 112.395 11.4431 112.465 11.3487ZM112.069 8.44519C112.138 8.36499 112.206 8.29995 112.271 8.25008L112.514 8.52171C112.44 8.57502 112.376 8.63402 112.321 8.69739C112.239 8.79276 112.189 8.90352 112.171 9.03099C112.153 9.15798 112.17 9.28449 112.223 9.41041C112.276 9.53634 112.359 9.6483 112.472 9.74579L113.435 10.5779L113.18 10.8736L111.376 9.31505L111.586 9.07221L111.944 9.32394L111.955 9.31103C111.895 9.1389 111.876 8.97886 111.895 8.83125C111.916 8.68448 111.973 8.55559 112.069 8.44519ZM115.224 7.28757C115.469 7.59107 115.583 7.88935 115.566 8.18338C115.551 8.47693 115.408 8.73364 115.138 8.95161C114.97 9.08702 114.789 9.16781 114.596 9.19411C114.404 9.22005 114.214 9.18854 114.025 9.0978C113.837 9.00753 113.664 8.86584 113.508 8.67204C113.264 8.36972 113.15 8.07333 113.165 7.78286C113.179 7.49286 113.324 7.23734 113.596 7.01759C113.857 6.80673 114.134 6.7251 114.427 6.77272C114.719 6.82082 114.985 6.99212 115.224 7.28757ZM113.822 8.41817C114.011 8.6519 114.2 8.79169 114.389 8.83896C114.579 8.88599 114.763 8.83718 114.942 8.69289C115.119 8.55003 115.205 8.38097 115.2 8.1848C115.195 7.98922 115.098 7.77492 114.909 7.54107C114.721 7.30806 114.532 7.16981 114.345 7.12704C114.157 7.08416 113.973 7.13474 113.794 7.27915C113.434 7.56926 113.444 7.9493 113.822 8.41817ZM117.885 7.04389L117.159 5.70289C117.066 5.53195 116.96 5.42545 116.839 5.38281C116.718 5.3404 116.577 5.36302 116.415 5.45045C116.2 5.5669 116.076 5.71154 116.043 5.88284C116.011 6.05485 116.067 6.27483 116.213 6.54397L116.801 7.63064L116.457 7.81674L115.322 5.7203L115.599 5.57068L115.805 5.82786L115.824 5.81756C115.833 5.67978 115.881 5.54996 115.967 5.42972C116.054 5.31007 116.167 5.2121 116.309 5.13557C116.566 4.99614 116.791 4.95515 116.983 5.01225C117.176 5.07018 117.343 5.22987 117.486 5.49392L118.225 6.85968L117.885 7.04389ZM121.269 5.05632C121.334 5.26967 121.305 5.45921 121.182 5.62446C121.058 5.79031 120.852 5.91718 120.564 6.00508C120.264 6.09666 120.011 6.12189 119.804 6.08019L119.7 5.73902C119.988 5.78486 120.248 5.77207 120.481 5.70111C120.669 5.64377 120.797 5.57151 120.864 5.48432C120.931 5.39725 120.95 5.30261 120.918 5.19966C120.891 5.10963 120.826 5.04625 120.725 5.00918C120.623 4.97186 120.455 4.9446 120.22 4.92861C119.98 4.91049 119.807 4.88561 119.702 4.85339C119.597 4.82105 119.513 4.77461 119.449 4.71337C119.387 4.65271 119.339 4.56955 119.307 4.464C119.25 4.27671 119.281 4.10613 119.4 3.95189C119.52 3.79683 119.712 3.67942 119.978 3.59828C120.237 3.51938 120.495 3.49652 120.752 3.53063L120.716 3.86648C120.455 3.83959 120.232 3.85499 120.047 3.9115C119.891 3.95888 119.781 4.01882 119.716 4.09274C119.65 4.16631 119.631 4.24662 119.657 4.33239C119.682 4.41531 119.738 4.47371 119.824 4.50712C119.91 4.54136 120.094 4.56814 120.377 4.58721C120.588 4.60036 120.749 4.62358 120.858 4.65686C120.967 4.69015 121.055 4.73861 121.122 4.80139C121.188 4.86501 121.237 4.94982 121.269 5.05632ZM123.488 5.36326L123.361 5.03986L123.344 5.04246C123.25 5.20842 123.148 5.32582 123.039 5.39654C122.931 5.4662 122.787 5.51512 122.61 5.54213C122.378 5.57755 122.187 5.5445 122.037 5.44286C121.886 5.34146 121.794 5.17988 121.76 4.958C121.687 4.48024 122.027 4.17188 122.777 4.03399L123.174 3.95782L123.153 3.81779C123.125 3.63832 123.067 3.51216 122.976 3.43824C122.887 3.36503 122.756 3.34145 122.585 3.36763C122.461 3.38659 122.346 3.42272 122.241 3.47709C122.136 3.53135 122.038 3.5882 121.948 3.64921L121.785 3.37711C121.894 3.29596 122.017 3.22702 122.151 3.16968C122.286 3.11246 122.422 3.07372 122.559 3.05287C122.844 3.0094 123.066 3.03996 123.224 3.1448C123.382 3.24964 123.482 3.43906 123.524 3.71389L123.769 5.32026L123.488 5.36326ZM122.65 5.21731C122.867 5.18437 123.028 5.10039 123.134 4.96428C123.24 4.82899 123.276 4.65379 123.243 4.43913L123.211 4.22672L122.866 4.29508C122.597 4.34602 122.405 4.41923 122.294 4.51364C122.182 4.60865 122.138 4.73777 122.163 4.90101C122.181 5.02421 122.233 5.11306 122.319 5.16673C122.403 5.22134 122.515 5.23804 122.65 5.21731ZM125.035 5.30936L124.213 2.89615L124.632 2.91037L125.09 4.33132C125.18 4.61694 125.237 4.82969 125.26 4.96912L125.277 4.96973C125.283 4.95136 125.288 4.92992 125.296 4.90658C125.303 4.88301 125.312 4.8573 125.322 4.82887C125.331 4.80091 125.39 4.63969 125.499 4.34531L126.054 2.95846L126.471 2.97256L125.485 5.32451L125.035 5.30936ZM127.589 5.58952C127.285 5.5272 127.072 5.37344 126.948 5.12929C126.823 4.88502 126.801 4.57015 126.88 4.18609C126.958 3.80393 127.103 3.52365 127.315 3.34382C127.527 3.16412 127.786 3.10535 128.091 3.1679C128.404 3.23234 128.621 3.3963 128.742 3.6613L128.77 3.66687C128.772 3.63784 128.778 3.57921 128.789 3.49202C128.799 3.40483 128.807 3.34619 128.813 3.31645L129.005 2.38403L129.388 2.4627L128.708 5.77397L128.399 5.71071L128.406 5.38659L128.389 5.38304C128.177 5.58691 127.91 5.65562 127.589 5.58952ZM127.716 5.28483C127.948 5.33257 128.131 5.30426 128.264 5.19906C128.397 5.09422 128.493 4.89663 128.553 4.60675L128.567 4.53721C128.634 4.21191 128.628 3.96918 128.547 3.80807C128.467 3.64779 128.311 3.54319 128.079 3.49545C127.882 3.45506 127.713 3.50197 127.573 3.63666C127.433 3.77135 127.333 3.98482 127.273 4.276C127.214 4.56505 127.223 4.79535 127.299 4.96688C127.375 5.1377 127.515 5.24361 127.716 5.28483ZM131.806 5.59935C131.666 5.9635 131.465 6.21204 131.203 6.34555C130.941 6.47929 130.647 6.48403 130.323 6.35977C130.122 6.28253 129.961 6.16691 129.842 6.0129C129.723 5.85938 129.655 5.6792 129.639 5.47071C129.622 5.26269 129.658 5.04223 129.747 4.8098C129.887 4.44695 130.086 4.19948 130.345 4.06692C130.603 3.93412 130.896 3.93081 131.223 4.05614C131.536 4.1765 131.746 4.37503 131.852 4.65224C131.957 4.9292 131.942 5.24503 131.806 5.59935ZM130.125 4.95444C130.017 5.23485 129.991 5.46845 130.045 5.65609C130.1 5.8435 130.234 5.97868 130.449 6.06101C130.661 6.14263 130.851 6.13161 131.018 6.02914C131.184 5.92631 131.321 5.73511 131.429 5.45482C131.536 5.17513 131.561 4.94248 131.504 4.75851C131.446 4.57453 131.31 4.44066 131.096 4.35845C130.665 4.19296 130.341 4.39186 130.125 4.95444ZM133.608 8.08186C133.359 7.8973 133.231 7.66759 133.221 7.39394C133.212 7.11994 133.324 6.82509 133.558 6.51033C133.791 6.19724 134.041 6.00449 134.309 5.93105C134.577 5.8576 134.836 5.91375 135.086 6.09938C135.343 6.28999 135.471 6.53058 135.468 6.822L135.491 6.83882C135.505 6.81335 135.536 6.76277 135.582 6.68814C135.628 6.61351 135.66 6.56376 135.679 6.53936L136.246 5.77539L136.56 6.00864L134.544 8.72227L134.292 8.53439L134.435 8.24356L134.42 8.2329C134.142 8.3285 133.872 8.27792 133.608 8.08186ZM133.852 7.8595C134.042 8.00095 134.22 8.05272 134.385 8.01339C134.55 7.97477 134.72 7.83629 134.897 7.59877L134.939 7.54166C135.137 7.27512 135.234 7.05266 135.23 6.87259C135.225 6.69371 135.127 6.53272 134.937 6.39115C134.776 6.27139 134.603 6.24272 134.419 6.30551C134.235 6.36853 134.055 6.5198 133.877 6.75839C133.701 6.99519 133.612 7.2076 133.608 7.39512C133.605 7.58218 133.687 7.73701 133.852 7.8595ZM137.448 9.88723C137.161 10.1516 136.871 10.2852 136.577 10.2882C136.283 10.2919 136.017 10.1657 135.782 9.91057C135.636 9.75183 135.543 9.5771 135.504 9.38602C135.466 9.19577 135.485 9.00398 135.563 8.80993C135.641 8.61625 135.771 8.43476 135.954 8.26595C136.24 8.00285 136.528 7.86922 136.819 7.86531C137.109 7.86104 137.373 7.98828 137.611 8.2457C137.838 8.49269 137.938 8.76361 137.909 9.05882C137.881 9.35367 137.727 9.63004 137.448 9.88723ZM136.228 8.56306C136.007 8.76658 135.88 8.96453 135.845 9.15655C135.811 9.34882 135.872 9.52959 136.027 9.69875C136.182 9.86602 136.356 9.94019 136.551 9.92254C136.746 9.90429 136.954 9.79365 137.174 9.59037C137.395 9.38744 137.52 9.18984 137.55 8.99971C137.581 8.80934 137.518 8.62892 137.363 8.45999C137.05 8.12036 136.671 8.15472 136.228 8.56306ZM138.653 9.91697L138.673 9.86353C138.748 9.83309 138.828 9.80182 138.916 9.77055C139.003 9.73975 139.093 9.71049 139.185 9.68301C139.276 9.65529 139.369 9.62946 139.462 9.60517C139.556 9.5816 139.647 9.55956 139.733 9.53978L139.913 9.77647C139.829 9.81272 139.743 9.8511 139.654 9.89233C139.565 9.93308 139.478 9.97513 139.391 10.0169C139.304 10.0596 139.219 10.1015 139.138 10.1433C139.057 10.1843 138.983 10.224 138.914 10.2612L138.653 9.91697ZM139.033 12.0683L139.245 12.1043L139.478 12.1513L140.549 12.4379L140.766 12.8388L139.411 12.4754L138.701 14.0324L138.477 13.6183L139.061 12.3614L138.723 12.2359L137.954 12.6523L137.77 12.3125L140.743 10.7034L140.927 11.0431L139.373 11.884L139.025 12.0532L139.033 12.0683ZM140.693 15.9256C140.325 16.0552 140.006 16.0636 139.734 15.9503C139.462 15.8376 139.268 15.6169 139.153 15.2897C139.081 15.0862 139.065 14.8891 139.105 14.6984C139.144 14.5081 139.237 14.3395 139.386 14.1919C139.534 14.0446 139.725 13.9294 139.96 13.8465C140.326 13.7173 140.644 13.7084 140.912 13.8195C141.181 13.93 141.374 14.1513 141.49 14.4813C141.602 14.798 141.586 15.0863 141.444 15.3464C141.301 15.606 141.051 15.7994 140.693 15.9256ZM140.094 14.2275C139.811 14.3273 139.616 14.4591 139.508 14.622C139.401 14.7848 139.385 14.975 139.462 15.1919C139.537 15.4064 139.668 15.5434 139.855 15.6042C140.041 15.6643 140.275 15.6445 140.559 15.5447C140.841 15.4452 141.034 15.3132 141.137 15.1503C141.24 14.9875 141.254 14.7972 141.177 14.5804C141.024 14.1449 140.662 14.0271 140.094 14.2275ZM139.99 18.5266L141.497 18.2965C141.689 18.2674 141.826 18.203 141.906 18.1036C141.987 18.0042 142.014 17.8638 141.986 17.6821C141.949 17.4401 141.855 17.2746 141.705 17.1857C141.554 17.097 141.328 17.0753 141.025 17.1216L139.804 17.3081L139.745 16.9218L142.101 16.5621L142.149 16.8728L141.837 16.9804L141.84 17.0016C141.967 17.0565 142.073 17.1453 142.157 17.2676C142.241 17.3889 142.294 17.5293 142.318 17.6882C142.363 17.9777 142.325 18.2033 142.206 18.3645C142.087 18.526 141.88 18.6294 141.583 18.6748L140.048 18.9092L139.99 18.5266ZM140.13 20.0365L140.103 19.6469L142.481 19.478L142.508 19.8677L140.13 20.0365ZM143.124 19.4018C143.21 19.3958 143.274 19.4134 143.317 19.4551C143.359 19.4959 143.382 19.5492 143.387 19.6142C143.391 19.6749 143.376 19.7295 143.34 19.7774C143.304 19.826 143.242 19.8534 143.156 19.8596C143.071 19.8655 143.007 19.8472 142.963 19.8042C142.919 19.7619 142.895 19.7102 142.891 19.6495C142.886 19.5845 142.902 19.5283 142.94 19.4818C142.977 19.4346 143.038 19.408 143.124 19.4018Z" fill="#3275D9"/>
<path fill-rule="evenodd" clip-rule="evenodd" d="M135.841 26.0645C134.14 30.0705 129.832 32.9159 124.786 32.9159C119.741 32.9159 115.433 30.0705 113.732 26.0645H135.841Z" fill="#3275D9"/>
<path fill-rule="evenodd" clip-rule="evenodd" d="M118.233 23.5371C118.156 23.3843 117.407 23.0992 117.255 23.0245C117.071 22.934 116.934 22.8544 116.747 22.7728L114.437 21.6671C113.982 21.4611 114.166 21.4468 113.911 22.1506C113.786 22.4922 113.693 22.4551 114.482 22.6363L115.154 22.8011C115.273 22.832 115.376 22.8505 115.502 22.8897L117.511 23.3948C117.762 23.4572 118.049 23.5599 118.233 23.5371Z" fill="#3275D9"/>
<path fill-rule="evenodd" clip-rule="evenodd" d="M118.14 24.2328L117.341 24.1475C116.987 24.1213 115.069 23.9277 114.83 23.9571C114.842 24.0798 114.822 24.0987 114.827 24.2114C114.831 24.3045 114.854 24.4011 114.86 24.4937C114.9 25.0598 114.774 24.9605 115.478 24.8152C115.684 24.7725 115.877 24.7615 116.05 24.7168L118.06 24.331C118.146 24.2822 118.116 24.3214 118.14 24.2328Z" fill="#3275D9"/>
<path fill-rule="evenodd" clip-rule="evenodd" d="M123.077 12.7094C122.979 13.056 123.122 13.1782 123.248 13.3902L123.461 14.09C123.336 14.5326 122.635 14.0483 122.36 14.5108C122.276 14.6527 122.216 15.0682 121.751 15.813L120.774 17.5358C120.657 17.7157 120.398 17.8833 120.358 18.0245C120.258 18.3758 120.756 18.7664 120.675 19.0545C120.621 19.2454 120.45 19.202 120.296 19.2252C120.045 19.2632 120.111 19.3205 119.836 19.3279C119.492 19.3369 119.208 19.3514 119.062 19.8704C118.922 20.3648 119.418 20.742 119.656 20.9606C120.535 21.7661 122.283 22.8281 123.441 23.1555L124.363 23.4161C124.772 23.5316 125.25 23.1489 125.239 22.7142C125.232 22.4316 125.109 22.3695 125.014 22.1468C124.707 21.4317 124.76 21.3173 125.432 21.3185C126.091 21.3195 125.989 20.8713 126.037 20.6261C126.744 20.659 126.277 20.5189 126.676 20.8723C126.988 21.1487 128.241 21.4135 128.709 21.546C129.003 21.629 130.193 22.1806 130.431 22.3943C130.695 22.6319 130.514 23.0698 130.95 23.217C131.211 23.3049 131.395 23.1456 131.591 23.0818C131.751 23.1415 131.911 23.2455 132.061 23.3368L135.5 25.2935C135.69 25.0785 136.084 24.2076 136.191 23.8295C136.007 23.6535 135.214 23.251 134.911 23.0796L132.905 21.9593C132.115 21.5181 132.476 21.6582 132.289 21.1823C132.112 20.7304 131.596 20.8262 131.433 21.101C130.948 20.964 130.759 20.8015 130.415 20.5922C128.766 19.5905 128.774 18.8559 127.881 18.6032C127.714 18.5562 127.83 18.6366 127.596 18.6333L127.489 18.4772C127.413 18.3447 127.35 18.3337 127.525 18.0442C127.728 17.7085 127.965 17.8171 127.935 17.4572C127.895 16.9944 127.539 16.8781 127.634 16.5423C127.687 16.3562 127.853 16.4206 128.023 16.3901C128.287 16.3431 128.068 16.3139 128.495 16.3077C129.132 16.2983 129.411 15.7326 129.134 15.1861C129.036 14.9931 128.634 14.653 128.446 14.4932L127.59 13.8507C126.129 12.9386 125.618 12.6534 123.997 12.1951C123.658 12.0993 123.178 12.3547 123.077 12.7094Z" fill="#3275D9"/>
<path fill-rule="evenodd" clip-rule="evenodd" d="M116.129 20.4842C116.172 20.5511 116.175 20.5756 116.228 20.645C116.269 20.6995 116.304 20.7364 116.346 20.7814L117.564 22.1363C117.66 22.2484 117.938 22.6338 118.089 22.6548C118.103 22.4868 117.955 22.3263 117.813 22.022C117.675 21.7251 116.934 20.2036 116.794 20.042L116.129 20.4842Z" fill="#3275D9"/>
</g>
<defs>
<clipPath id="clip0_1802_19837">
<rect width="245" height="42" fill="white"/>
</clipPath>
</defs>
</svg>
